# xmcd
#
# Track frame offsets: 
#        150
#        16544
#        30069
#        48699
#        67223
#        89263
#        109574
#        127178
#        144402
#        152681
#        163747
#        178210
#        186009
#        198727
#        209077
#        223247
#        236008
#        245518
#        257063
#        262636
#        271290
#        287151
#        302233
#        312694
#
# Disc length: 4319 seconds
#
# Revision: 0
# Processed by: cddbd v1.5.1PL2 Copyright (c) Steve Scherf et al.
# Submitted via: ExactAudioCopy v0.95b4
#
DISCID=6d10dd18
DTITLE=Александр Розенбаум - Собрание сочинений
DYEAR=2001
DGENRE=
TTITLE0=Гоп-стоп
TTITLE1=Вальс Бостон
TTITLE2=Червончики
TTITLE3=Дагомыс
TTITLE4=Ау!
TTITLE5=Утки
TTITLE6=Низкий старт
TTITLE7=Безпризорник
TTITLE8=Супчик из цветной капусты
TTITLE9=Фраер
TTITLE10=Открылась дверь
TTITLE11=Извозчик
TTITLE12=Зойка
TTITLE13=Нинка
TTITLE14=Мы идем любовь искать
TTITLE15=Скрипач ростовский Моня
TTITLE16=Заходите к нам на огонек
TTITLE17=Есаул молоденький
TTITLE18=Ах, эти ночи
TTITLE19=Встану по утру
TTITLE20=Свадьба
TTITLE21=Прости-прощай
TTITLE22=Ленинград-МГА
TTITLE23=Майдан
EXTD=
EXTT0=
EXTT1=
EXTT2=
EXTT3=
EXTT4=
EXTT5=
EXTT6=
EXTT7=
EXTT8=
EXTT9=
EXTT10=
EXTT11=
EXTT12=
EXTT13=
EXTT14=
EXTT15=
EXTT16=
EXTT17=
EXTT18=
EXTT19=
EXTT20=
EXTT21=
EXTT22=
EXTT23=
PLAYORDER=
